<?xml version="1.0" encoding="utf-8"?>
<!-- Generator: Adobe Illustrator 24.2.0, SVG Export Plug-In . SVG Version: 6.00 Build 0)  -->
<svg version="1.1" id="Layer_1" xmlns="http://www.w3.org/2000/svg" xmlns:xlink="http://www.w3.org/1999/xlink" x="0px" y="0px"
	 viewBox="0 0 992 787.5" style="enable-background:new 0 0 992 787.5;" xml:space="preserve">
<style type="text/css">
	.st0{fill:#FFFFFF;}
	.st1{fill:#ED9F00;}
	.st2{fill:#5ACAFA;}
	.st3{fill:#00875A;}
	.st4{fill:#ED9F00;stroke:#121212;stroke-width:2;}
	.st5{fill:#121212;}
	.st6{fill:#CE3643;}
	.st7{fill:#1D52D4;}
	.st8{fill:#F6F7F9;}
	.st9{fill:#ED9F00;filter:url(#Adobe_OpacityMaskFilter);stroke:#121212;stroke-width:2;}
	.st10{mask:url(#mask0_451_5078_1_);}
	.st11{fill:none;stroke:#121212;stroke-width:2;}
	.st12{fill:#F6F7F9;stroke:#121212;stroke-width:2;}
	.st13{fill:#FFFFFF;filter:url(#Adobe_OpacityMaskFilter_1_);stroke:#121212;stroke-width:2;}
	.st14{mask:url(#mask1_451_5078_1_);}
</style>
<polygon class="st0" points="978,200.3 978,295.3 892,247.3 892,150.5 633.2,0.7 626.7,4.5 626.5,4.4 0,366.7 0,367.8 992,367.8 
	992,208.4 "/>
<polygon class="st1" points="978,295.3 978,200.3 892,150.5 892,247.3 "/>
<path class="st2" d="M548,49l86,50.5v98l-86-48V49z"/>
<path class="st3" d="M290,197.9l86-49.9l86,49.6l-86.2,49.9L290,197.9z"/>
<path class="st1" d="M204,346.1l86-48.8l86,48l-86.2,50.5L204,346.1z"/>
<path class="st2" d="M548,146.8l86,50.5v98l-86-48V146.8z"/>
<path class="st4" d="M291,296.7v-98.2l84,49.3v95.7L291,296.7z"/>
<path class="st1" d="M204,345.8l86,49.5v99l-86-48V345.8z"/>
<path class="st2" d="M634,197.5l86-50.5V49l-86,49V197.5z"/>
<path class="st2" d="M634,295.3l86-50.5v-98l-86,49V295.3z"/>
<path class="st5" d="M376,345.8l86-49.8v-98.4L376,247V345.8z"/>
<polygon class="st3" points="720,244.1 720,245.1 634,294.1 634,392.9 720,343 720,342.9 806,392.6 806,294.6 "/>
<path class="st6" d="M720,738.3l86-50.5V392.6l-86,49.6V738.3z"/>
<path class="st5" d="M720,737.9l86-49.9l86,49.6l-86.2,49.9L720,737.9z"/>
<path class="st7" d="M548,49.9L634,0l86,49.6l-86.2,49.9L548,49.9z"/>
<path class="st8" d="M548,247.3l86.2-51.3l85.8,49.2l-86.5,50.3L548,247.3z"/>
<path class="st5" d="M806,295.9l86-49.9l86,49.6l-86.2,49.9L806,295.9z"/>
<g>
	<defs>
		<filter id="Adobe_OpacityMaskFilter" filterUnits="userSpaceOnUse" x="278" y="144.8" width="111" height="197">
			<feColorMatrix  type="matrix" values="1 0 0 0 0  0 1 0 0 0  0 0 1 0 0  0 0 0 1 0"/>
		</filter>
	</defs>
	<mask maskUnits="userSpaceOnUse" x="278" y="144.8" width="111" height="197" id="mask0_451_5078_1_">
		<path class="st9" d="M291,296.7v-98.2l84,49.3v95.7L291,296.7z"/>
	</mask>
	<g class="st10">
		<line class="st11" x1="303" y1="144.8" x2="304" y2="319.8"/>
		<line class="st11" x1="317" y1="146.8" x2="318" y2="321.8"/>
		<line class="st11" x1="331" y1="157.8" x2="332" y2="332.8"/>
		<line class="st11" x1="344" y1="161.8" x2="345" y2="336.8"/>
		<line class="st11" x1="359" y1="166.8" x2="360" y2="341.8"/>
		<line class="st11" x1="278.5" y1="273.9" x2="382.5" y2="332.9"/>
		<line class="st11" x1="281.5" y1="258.9" x2="385.5" y2="317.9"/>
		<line class="st11" x1="281.5" y1="244.9" x2="385.5" y2="303.9"/>
		<line class="st11" x1="284.5" y1="229.9" x2="388.5" y2="288.9"/>
		<line class="st11" x1="284.5" y1="213.9" x2="388.5" y2="272.9"/>
	</g>
	<path class="st12" d="M720,441.1l-84-48.2l84-48.7l84,48.5L720,441.1z"/>
	<defs>
		<filter id="Adobe_OpacityMaskFilter_1_" filterUnits="userSpaceOnUse" x="624" y="331.8" width="189" height="119.7">
			<feColorMatrix  type="matrix" values="1 0 0 0 0  0 1 0 0 0  0 0 1 0 0  0 0 0 1 0"/>
		</filter>
	</defs>
	<mask maskUnits="userSpaceOnUse" x="624" y="331.8" width="189" height="119.7" id="mask1_451_5078_1_">
		<path class="st13" d="M720,441.1l-84-48.2l84-48.7l84,48.5L720,441.1z"/>
	</mask>
	<g class="st14">
		<line class="st11" x1="734.5" y1="450.6" x2="624.5" y2="386.6"/>
		<line class="st11" x1="750.5" y1="441.6" x2="640.5" y2="377.6"/>
		<line class="st11" x1="760.5" y1="430.6" x2="650.5" y2="366.6"/>
		<line class="st11" x1="777.5" y1="424.6" x2="667.5" y2="360.6"/>
		<line class="st11" x1="780.5" y1="410.6" x2="670.5" y2="346.6"/>
		<line class="st11" x1="806.5" y1="410.6" x2="696.5" y2="346.6"/>
		<line class="st11" x1="812.5" y1="396.6" x2="702.5" y2="332.6"/>
		<line class="st11" x1="628.5" y1="411.9" x2="738.5" y2="347.9"/>
		<line class="st11" x1="645.5" y1="417.9" x2="755.5" y2="353.9"/>
		<line class="st11" x1="652.5" y1="428.9" x2="762.5" y2="364.9"/>
		<line class="st11" x1="672.5" y1="432.9" x2="782.5" y2="368.9"/>
		<line class="st11" x1="687.5" y1="441.9" x2="797.5" y2="377.9"/>
	</g>
</g>
</svg>
