<?xml version="1.0" encoding="UTF-8" standalone="no"?>
<!-- Created with Inkscape (http://www.inkscape.org/) -->

<svg
   xmlns:dc="http://purl.org/dc/elements/1.1/"
   xmlns:cc="http://creativecommons.org/ns#"
   xmlns:rdf="http://www.w3.org/1999/02/22-rdf-syntax-ns#"
   xmlns:svg="http://www.w3.org/2000/svg"
   xmlns="http://www.w3.org/2000/svg"
   xmlns:sodipodi="http://sodipodi.sourceforge.net/DTD/sodipodi-0.dtd"
   xmlns:inkscape="http://www.inkscape.org/namespaces/inkscape"
   width="12.679083mm"
   height="12.700171mm"
   viewBox="0 0 12.679083 12.700171"
   version="1.1"
   id="svg133"
   inkscape:version="0.92.2 (5c3e80d, 2017-08-06)"
   sodipodi:docname="described-logo.svg">
  <defs
     id="defs127" />
  <sodipodi:namedview
     id="base"
     pagecolor="#ffffff"
     bordercolor="#666666"
     borderopacity="1.0"
     inkscape:pageopacity="0.0"
     inkscape:pageshadow="2"
     inkscape:zoom="11.2"
     inkscape:cx="55.846038"
     inkscape:cy="22.35437"
     inkscape:document-units="mm"
     inkscape:current-layer="layer1"
     showgrid="false"
     fit-margin-top="0"
     fit-margin-left="0"
     fit-margin-right="0"
     fit-margin-bottom="0"
     inkscape:window-width="2560"
     inkscape:window-height="1387"
     inkscape:window-x="-8"
     inkscape:window-y="-8"
     inkscape:window-maximized="1" />
  <metadata
     id="metadata130">
    <rdf:RDF>
      <cc:Work
         rdf:about="">
        <dc:format>image/svg+xml</dc:format>
        <dc:type
           rdf:resource="http://purl.org/dc/dcmitype/StillImage" />
        <dc:title></dc:title>
      </cc:Work>
    </rdf:RDF>
  </metadata>
  <g
     inkscape:label="Layer 1"
     inkscape:groupmode="layer"
     id="layer1"
     transform="translate(-61.696173,-96.370153)">
    <g
       transform="matrix(0.26458333,0,0,0.26458333,59.293065,81.02449)"
       id="g98">
      <path
         style="fill:#00b294"
         inkscape:connector-curvature="0"
         id="path36"
         d="m 13.727,74.82 a 25.532,25.532 0 0 0 2.757,0.228 0.972,0.972 0 0 0 0.841,-0.516 26.176,26.176 0 0 0 -0.1,-2.813 c -0.067,-0.506 -0.3,-0.742 -0.807,-0.742 -0.639,0 -1.311,0 -1.984,0.034 a 1.149,1.149 0 0 0 -1.244,1.247 c 0,0.641 0.033,1.315 0.067,1.955 a 0.617,0.617 0 0 0 0.47,0.607 z" />
      <path
         style="fill:#00b294"
         inkscape:connector-curvature="0"
         id="path38"
         d="m 22.472,66.026 a 2.134,2.134 0 0 0 0.908,0.236 c 0.711,0.026 1.4,0.051 2.09,0.062 a 0.822,0.822 0 0 0 0.673,-0.793 18.3,18.3 0 0 0 -0.241,-2.909 0.615,0.615 0 0 0 -0.605,-0.472 c -0.4,0 -0.807,-0.034 -1.211,-0.068 -0.3,0.034 -0.572,0.034 -0.807,0.068 A 1.1,1.1 0 0 0 22.1,63.3 c -0.034,0.64 -0.068,1.314 -0.068,1.989 a 0.7,0.7 0 0 0 0.44,0.737 z" />
      <path
         style="fill:#00b294"
         inkscape:connector-curvature="0"
         id="path40"
         d="m 55.936,84.328 a 11.369,11.369 0 0 0 -1.412,-0.135 9.934,9.934 0 0 0 -1.413,0.135 0.335,0.335 0 0 0 -0.2,0.27 c -0.034,0.5 -0.034,2.427 0,2.9 a 0.667,0.667 0 0 0 0.639,0.741 23.756,23.756 0 0 0 2.69,-0.135 0.8,0.8 0 0 0 0.5,-0.438 4.493,4.493 0 0 0 0.135,-2.494 0.924,0.924 0 0 0 -0.939,-0.844 z" />
      <path
         style="fill:#00b294"
         inkscape:connector-curvature="0"
         id="path42"
         d="m 55.665,75.43 h -0.807 a 7.529,7.529 0 0 0 -0.875,-0.034 c -0.1,0 -0.168,0.034 -0.269,0.034 -0.673,0.1 -0.807,0.236 -0.807,0.944 V 78.6 c 0,0.539 0.1,0.674 0.605,0.775 a 6.473,6.473 0 0 0 2.792,-0.135 c 0.168,-0.033 0.336,-0.269 0.437,-0.438 a 3.775,3.775 0 0 0 0.134,-2.36 c -0.134,-0.81 -0.403,-0.978 -1.21,-1.012 z" />
      <path
         style="fill:#00b294"
         inkscape:connector-curvature="0"
         id="path44"
         d="m 38.38,101.887 c -0.807,-0.033 -1.615,0.034 -2.422,0 a 0.55,0.55 0 0 0 -0.672,0.573 25.064,25.064 0 0 0 0.2,2.731 0.753,0.753 0 0 0 0.673,0.674 c 0.4,0.068 0.774,0.1 1.177,0.135 a 2.692,2.692 0 0 1 0.5,-0.034 c 0.908,0 1.345,-0.371 1.412,-1.281 A 14.172,14.172 0 0 0 39.321,103 c 0.034,-0.776 -0.201,-1.045 -0.941,-1.113 z" />
      <path
         style="fill:#00b294"
         inkscape:connector-curvature="0"
         id="path46"
         d="m 29.739,101.892 c -0.74,0 -1.48,0 -2.186,0.033 -0.3,0.034 -0.673,0 -0.807,0.371 a 3.9,3.9 0 0 0 -0.236,1.045 c 0,0.472 0.034,0.978 0.067,1.45 a 1.081,1.081 0 0 0 1.178,1.18 11.574,11.574 0 0 0 1.513,0 1.139,1.139 0 0 0 1.143,-1.045 c 0.068,-0.439 0.068,-0.877 0.1,-1.315 0,0 -0.033,0 0,-0.034 a 8.125,8.125 0 0 0 0,-0.91 0.762,0.762 0 0 0 -0.772,-0.775 z" />
      <path
         style="fill:#00b294"
         inkscape:connector-curvature="0"
         id="path48"
         d="m 51.462,97.645 a 16.453,16.453 0 0 0 -1.816,-0.067 c -0.673,0.033 -0.975,0.2 -1.009,0.876 a 14.745,14.745 0 0 0 0.134,2.427 c 0,0.169 0.3,0.439 0.471,0.472 a 11.019,11.019 0 0 0 2.354,0.135 c 0.707,-0.067 0.942,-0.472 0.976,-1.18 V 99.6 a 5.919,5.919 0 0 0 -0.034,-0.775 1.13,1.13 0 0 0 -1.076,-1.18 z" />
      <path
         style="fill:#00b294"
         inkscape:connector-curvature="0"
         id="path50"
         d="M 54.223,70.44 H 55 a 6.061,6.061 0 0 0 1.11,-0.034 0.791,0.791 0 0 0 0.74,-0.64 5.366,5.366 0 0 0 0,-2.529 0.74,0.74 0 0 0 -0.774,-0.674 C 55.437,66.53 54.765,66.53 54.126,66.53 a 0.847,0.847 0 0 0 -0.875,0.707 10.781,10.781 0 0 0 -0.067,2.326 c 0.03,0.637 0.4,0.843 1.039,0.877 z" />
      <path
         style="fill:#00b294"
         inkscape:connector-curvature="0"
         id="path52"
         d="m 16.016,97.673 a 13.323,13.323 0 0 0 -1.648,0 1.123,1.123 0 0 0 -1.143,1.18 c 0,0.472 -0.034,0.978 0,1.45 a 1.116,1.116 0 0 0 1.175,1.247 12.247,12.247 0 0 0 1.58,0 c 0.673,-0.034 0.908,-0.236 1.077,-0.91 0.067,-0.371 0.067,-0.708 0.1,-1.079 a 4.454,4.454 0 0 1 0,-0.674 1.134,1.134 0 0 0 -1.141,-1.214 z" />
      <path
         style="fill:#00b294"
         inkscape:connector-curvature="0"
         id="path54"
         d="m 14.467,66.06 h 1.412 a 1.176,1.176 0 0 0 1.245,-1.214 6.067,6.067 0 0 0 0,-0.775 4.117,4.117 0 0 0 0,-0.64 1.168,1.168 0 0 0 -1.211,-1.281 10.747,10.747 0 0 0 -1.48,0 1.15,1.15 0 0 0 -1.177,1.179 11.8,11.8 0 0 0 0,1.551 1.141,1.141 0 0 0 1.211,1.18 z" />
      <path
         style="fill:#00b294"
         inkscape:connector-curvature="0"
         id="path56"
         d="m 46.991,102.1 a 15.184,15.184 0 0 0 -2.153,0.067 0.59,0.59 0 0 0 -0.437,0.4 13.445,13.445 0 0 0 -0.134,2.326 1.043,1.043 0 0 0 1.143,1.078 h 1.446 a 1.184,1.184 0 0 0 1.278,-1.281 v -1.382 c -0.034,-0.775 -0.37,-1.18 -1.143,-1.208 z" />
      <path
         style="fill:#00b294"
         inkscape:connector-curvature="0"
         id="path58"
         d="m 11.608,84.4 a 13.084,13.084 0 0 0 -1.984,0.033 c -0.37,0 -0.505,0.27 -0.505,0.641 v 1.18 A 3.547,3.547 0 0 1 9.086,86.827 V 87.4 c 0,0.64 0.168,0.843 0.807,0.876 0.706,0.034 1.446,0 2.152,-0.033 0.336,-0.034 0.538,-0.169 0.572,-0.506 q 0.1,-1.062 0.1,-2.124 C 12.718,84.566 12.65,84.465 11.608,84.4 Z" />
      <path
         style="fill:#00b294"
         inkscape:connector-curvature="0"
         id="path60"
         d="m 36.2,61.607 c 0.74,0.034 1.446,0.034 2.153,0 0.5,-0.034 0.807,-0.2 0.84,-0.573 a 16.746,16.746 0 0 0 0.1,-2.259 C 39.26,58.169 38.993,58 38.385,58 h -2.32 c -0.3,0 -0.471,0.1 -0.538,0.371 a 6.562,6.562 0 0 0 -0.068,2.562 0.64,0.64 0 0 0 0.741,0.674 z" />
      <path
         style="fill:#00b294"
         inkscape:connector-curvature="0"
         id="path62"
         d="M 12.316,75.663 A 4.691,4.691 0 0 0 9.592,75.494 c -0.337,0.034 -0.471,0.27 -0.471,0.607 v 1.281 c 0,0.371 0,0.742 0.033,1.112 0,0.641 0.2,0.877 0.841,0.877 0.641,0 1.278,0 1.917,-0.034 0.538,-0.034 0.774,-0.236 0.807,-0.809 0.034,-0.809 -0.033,-1.618 -0.067,-2.427 a 0.635,0.635 0 0 0 -0.336,-0.438 z" />
      <path
         style="fill:#00b294"
         inkscape:connector-curvature="0"
         id="path64"
         d="m 27.148,61.54 a 19.385,19.385 0 0 0 2.421,0.067 c 0.3,0 0.706,-0.1 0.74,-0.506 0.034,-0.842 0.067,-1.685 0.034,-2.528 C 30.343,58.135 30.107,58 29.67,58 h -2.556 c -0.3,0 -0.5,0.1 -0.538,0.4 a 5.274,5.274 0 0 0 0.135,2.8 0.611,0.611 0 0 0 0.437,0.34 z" />
      <path
         style="fill:#00b294"
         inkscape:connector-curvature="0"
         id="path66"
         d="m 12.213,93.465 a 4.189,4.189 0 0 0 -2.724,-0.1 c -0.269,0.068 -0.37,0.236 -0.37,0.54 v 1.213 c 0,0.438 0,0.877 -0.033,1.349 a 0.557,0.557 0 0 0 0.437,0.606 4.509,4.509 0 0 0 2.589,-0.1 0.926,0.926 0 0 0 0.471,-0.607 18.916,18.916 0 0 0 0,-2.393 0.65,0.65 0 0 0 -0.37,-0.508 z" />
      <path
         style="fill:#00b294"
         inkscape:connector-curvature="0"
         id="path68"
         d="m 45.174,61.54 a 14.51,14.51 0 0 0 2.085,0 A 0.706,0.706 0 0 0 48,60.9 12.736,12.736 0 0 0 48.067,58.641 c -0.033,-0.573 -0.235,-0.64 -0.807,-0.64 h -1.077 a 10.356,10.356 0 0 0 -1.043,0.034 c -0.639,0 -0.84,0.168 -0.874,0.809 0,0.5 -0.034,1.011 0,1.517 0,0.739 0.303,1.145 0.908,1.179 z" />
      <path
         style="fill:#00b294"
         inkscape:connector-curvature="0"
         id="path70"
         d="m 49.807,84.538 c 0.752,-0.1 1.537,-0.136 2.289,-0.2 a 0.586,0.586 0 0 0 0.58,-0.513 c 0.034,-0.411 0.069,-0.856 0.069,-1.267 0,-0.719 -0.035,-1.4 -0.069,-2.122 A 0.476,0.476 0 0 0 52.198,79.922 C 51.857,79.888 51.549,79.888 51.242,79.854 50.559,79.785 49.91,79.717 49.261,79.614 A 0.714,0.714 0 0 1 48.578,78.895 C 48.544,77.971 48.51,77.081 48.544,76.157 a 0.59,0.59 0 0 1 0.429,-0.649 c 0.04,0.007 0.069,0.027 0.112,0.031 a 20.885,20.885 0 0 0 2.527,0 0.876,0.876 0 0 0 0.922,-0.822 c 0,-0.035 0.005,-0.071 0.009,-0.107 a 0.677,0.677 0 0 0 0.031,-0.131 l -0.02,-0.011 a 15.378,15.378 0 0 0 0.083,-2.626 C 52.602,71.123 52.329,71.02 51.646,71.02 h -1.332 c -0.444,0 -0.854,0 -1.263,0.034 -0.786,0 -1.025,0.206 -1.059,1.027 a 18.685,18.685 0 0 0 -0.034,1.951 2.578,2.578 0 0 0 0.106,0.663 0.705,0.705 0 0 1 -0.784,0.366 2.576,2.576 0 0 1 -0.512,0 9.179,9.179 0 0 1 -1.674,-0.411 1.536,1.536 0 0 1 -0.58,-0.65 4.236,4.236 0 0 1 -0.273,-2.157 0.843,0.843 0 0 1 0.751,-0.821 c 0.376,-0.034 0.717,-0.069 1.093,-0.1 0.478,-0.034 0.99,-0.034 1.468,-0.068 0.308,-0.035 0.615,-0.206 0.615,-0.548 q 0,-1.335 -0.1,-2.67 C 48,66.875 47.656,66.6 46.9,66.6 c -0.17,0 -0.375,-0.034 -0.546,-0.034 -0.717,0 -1.434,0.034 -2.152,0.068 -0.1,0 -0.273,0.1 -0.273,0.2 -0.068,0.377 -0.1,0.719 -0.136,1.1 -0.069,0.65 -0.1,1.3 -0.2,1.917 -0.034,0.308 -0.137,0.65 -0.547,0.684 A 9.148,9.148 0 0 1 41.68,70.57 3.927,3.927 0 0 1 40.451,70.193 1.81,1.81 0 0 1 39.563,68.618 c -0.034,-0.718 -0.1,-1.4 -0.171,-2.088 0.115,-0.009 0.216,-0.019 0.321,-0.029 0.156,0.1 3.976,-0.11 4.011,-0.624 a 16.27,16.27 0 0 0 0.1,-2.875 C 43.79,62.283 43.517,62.18 42.834,62.18 H 41.5 c -0.41,0 -0.854,0 -1.264,0.034 -0.785,0 -1.024,0.206 -1.059,1.027 a 18.685,18.685 0 0 0 -0.034,1.951 2.656,2.656 0 0 0 0.094,0.635 c -0.006,0.04 -0.015,0.082 -0.02,0.121 a 0.36,0.36 0 0 1 -0.41,0.343 c -0.99,0 -2.014,0.034 -3.005,-0.035 -0.717,-0.034 -0.854,-0.239 -0.922,-0.958 -0.068,-0.787 -0.137,-1.54 -0.205,-2.328 -0.068,-0.616 -0.342,-0.89 -0.956,-0.89 h -2.354 c -0.546,0.034 -0.819,0.24 -0.888,0.788 -0.1,0.958 -0.205,1.916 -0.273,2.909 -0.034,0.343 -0.205,0.479 -0.478,0.479 -0.956,0.035 -1.947,0.069 -2.9,0.1 -0.922,0.069 -1.059,-0.1 -1.093,1.027 a 10.9,10.9 0 0 1 -0.239,2.123 1.166,1.166 0 0 1 -1.024,1.061 c -0.444,0.034 -0.854,0.171 -1.3,0.171 a 10.721,10.721 0 0 1 -1.5,-0.137 0.47,0.47 0 0 1 -0.273,-0.342 v -0.038 a 0.86,0.86 0 0 0 0.036,-0.137 16.187,16.187 0 0 0 0.1,-2.876 c -0.035,-0.719 -0.308,-0.821 -0.991,-0.821 h -1.336 c -0.444,0 -0.854,0 -1.263,0.034 -0.786,0 -1.025,0.2 -1.059,1.027 A 18.68,18.68 0 0 0 16.85,69.4 c 0.034,0.924 0.375,1.438 1.127,1.506 a 17.739,17.739 0 0 0 2.1,0.013 c 0.119,0.007 0.238,0.007 0.357,0.025 0.614,0.069 0.751,0.274 0.751,0.89 -0.034,0.651 -0.068,1.335 -0.137,1.986 a 1.457,1.457 0 0 1 -1.263,1.335 c -0.82,0.1 -1.64,0.2 -2.459,0.239 -0.41,0 -0.478,0.172 -0.478,0.514 -0.034,1.061 -0.034,2.157 -0.1,3.218 -0.007,0.119 -0.014,0.433 -0.02,0.851 a 1.838,1.838 0 0 0 -0.6,-0.069 H 14.8 c -0.41,0 -0.854,0 -1.264,0.034 -0.785,0 -1.024,0.206 -1.059,1.027 a 18.7,18.7 0 0 0 -0.034,1.952 c 0.034,0.924 0.376,1.437 1.127,1.506 a 20.886,20.886 0 0 0 2.527,0 0.962,0.962 0 0 0 0.591,-0.2 c 0,0.516 0,0.891 0,0.99 0.034,1.027 0.068,2.054 0.068,3.081 0,0.548 -0.034,0.548 -0.546,0.582 -0.376,0.034 -0.786,0 -1.2,0.034 a 10.679,10.679 0 0 0 -1.5,0.171 c -0.615,0.1 -0.854,0.411 -0.888,1.062 v 1.683 c 0,0.822 0.307,1.164 1.127,1.267 a 7.359,7.359 0 0 0 2.732,0 0.439,0.439 0 0 0 0.239,-0.309 c 0.068,-0.616 0.1,-1.2 0.137,-1.814 0.034,-0.65 0.068,-1.3 0.1,-1.985 0.547,0 2.152,0.068 2.562,0.137 a 1.561,1.561 0 0 1 1.3,1.266 10.191,10.191 0 0 1 0.137,2.054 0.693,0.693 0 0 1 -0.546,0.685 7.152,7.152 0 0 1 -0.888,0.137 c -0.615,0.034 -1.264,0.068 -1.879,0.137 -0.58,0.034 -0.683,0.239 -0.683,0.821 0.034,0.719 0.068,1.438 0.068,2.157 0,0.821 0.274,1.164 1.093,1.232 0.819,0.068 1.64,0.069 2.459,0.1 a 0.629,0.629 0 0 0 0.717,-0.65 v -0.719 c 0.069,-0.651 0.1,-1.267 0.171,-1.883 a 0.777,0.777 0 0 1 0.717,-0.753 4.159,4.159 0 0 1 1.947,0.137 1.357,1.357 0 0 1 1.093,0.821 5.187,5.187 0 0 1 0.273,2.5 2.348,2.348 0 0 1 -0.282,0.619 c -0.052,0 -0.1,0 -0.162,0 h -1.339 c -0.444,0 -0.853,0 -1.263,0.034 -0.786,0 -1.025,0.206 -1.059,1.027 a 18.7,18.7 0 0 0 -0.034,1.952 c 0.034,0.924 0.376,1.437 1.127,1.506 a 20.885,20.885 0 0 0 2.527,0 0.876,0.876 0 0 0 0.922,-0.822 16.175,16.175 0 0 0 0.1,-2.875 2.039,2.039 0 0 0 -0.023,-0.228 c 0.124,-0.293 0.354,-0.421 0.808,-0.421 0.786,0 1.605,0.068 2.391,0.136 a 1.135,1.135 0 0 1 0.99,1.062 c 0.068,0.855 0.137,1.745 0.2,2.6 a 0.411,0.411 0 0 0 0.376,0.411 c 0.41,0.034 0.785,0.1 1.2,0.1 0.717,0 1.434,-0.034 2.152,-0.069 0.409,0 0.58,-0.171 0.614,-0.582 0.069,-0.753 0.137,-1.54 0.239,-2.293 a 1.187,1.187 0 0 1 0.923,-1.13 20.7,20.7 0 0 1 2.527,-0.068 0.711,0.711 0 0 1 0.683,0.442 c -0.005,0.053 -0.011,0.1 -0.013,0.162 a 18.41,18.41 0 0 0 -0.035,1.951 c 0.035,0.924 0.376,1.438 1.127,1.506 a 20.7,20.7 0 0 0 2.528,0 0.876,0.876 0 0 0 0.922,-0.821 16.186,16.186 0 0 0 0.1,-2.876 c -0.034,-0.719 -0.307,-0.822 -0.99,-0.822 h -1.327 c -0.326,0 -0.669,0.011 -1,0.028 a 0.656,0.656 0 0 1 -0.588,-0.529 c -0.239,-1.232 0.068,-2.807 1.878,-3.115 0.786,-0.137 1.742,0.034 1.845,1.2 l 0.1,1.951 c 0.034,0.514 0.239,0.754 0.751,0.719 0.888,-0.034 1.81,-0.1 2.733,-0.1 a 1.208,1.208 0 0 0 1.024,-0.89 c 0.068,-0.48 0.068,-0.925 0.1,-1.4 0,-0.513 0,-1.061 0.034,-1.575 A 0.589,0.589 0 0 0 47.655,93.274 H 46.8 a 4.789,4.789 0 0 1 -1.844,-0.377 c -0.273,-0.137 -0.41,-0.274 -0.41,-0.548 a 4.185,4.185 0 0 1 0,-1.129 2.406,2.406 0 0 1 0.478,-1.164 3,3 0 0 1 2.459,-0.651 0.69,0.69 0 0 1 0.581,0.582 6.349,6.349 0 0 1 0.1,1.13 v 1.603 c 0,0.308 0.273,0.685 0.512,0.685 0.854,-0.035 1.708,-0.069 2.562,-0.137 0.854,-0.068 1.263,-0.308 1.3,-0.925 a 23.316,23.316 0 0 0 0,-2.67 c -0.035,-0.513 -0.274,-0.684 -0.786,-0.719 -0.649,-0.068 -1.3,-0.068 -1.947,-0.1 -0.922,-0.069 -1.161,-0.308 -1.229,-1.233 a 11.6,11.6 0 0 1 0.034,-1.882 1.189,1.189 0 0 1 1.197,-1.201 z m -14.589,-14.182 5.7,5.7 -8.242,8.244 -5.842,-5.843 z m -11.793,21 2.2,-11.393 9.161,9.161 z m 12.713,-3.6 -2.309,-2.309 8.242,-8.243 2.452,2.452 z" />
    </g>
  </g>
</svg>
