<?xml version="1.0" encoding="UTF-8" standalone="no"?>
<!-- Created with Inkscape (http://www.inkscape.org/) -->

<svg
   xmlns:dc="http://purl.org/dc/elements/1.1/"
   xmlns:cc="http://creativecommons.org/ns#"
   xmlns:rdf="http://www.w3.org/1999/02/22-rdf-syntax-ns#"
   xmlns:svg="http://www.w3.org/2000/svg"
   xmlns="http://www.w3.org/2000/svg"
   xmlns:sodipodi="http://sodipodi.sourceforge.net/DTD/sodipodi-0.dtd"
   xmlns:inkscape="http://www.inkscape.org/namespaces/inkscape"
   width="12.679322mm"
   height="12.700437mm"
   viewBox="0 0 12.679322 12.700437"
   version="1.1"
   id="svg131"
   inkscape:version="0.92.2 (5c3e80d, 2017-08-06)"
   sodipodi:docname="secure-logo.svg">
  <defs
     id="defs125" />
  <sodipodi:namedview
     id="base"
     pagecolor="#ffffff"
     bordercolor="#666666"
     borderopacity="1.0"
     inkscape:pageopacity="0.0"
     inkscape:pageshadow="2"
     inkscape:zoom="11.2"
     inkscape:cx="53.70371"
     inkscape:cy="5.0564251"
     inkscape:document-units="mm"
     inkscape:current-layer="layer1"
     showgrid="false"
     fit-margin-top="0"
     fit-margin-left="0"
     fit-margin-right="0"
     fit-margin-bottom="0"
     inkscape:window-width="2560"
     inkscape:window-height="1387"
     inkscape:window-x="-8"
     inkscape:window-y="-8"
     inkscape:window-maximized="1" />
  <metadata
     id="metadata128">
    <rdf:RDF>
      <cc:Work
         rdf:about="">
        <dc:format>image/svg+xml</dc:format>
        <dc:type
           rdf:resource="http://purl.org/dc/dcmitype/StillImage" />
        <dc:title></dc:title>
      </cc:Work>
    </rdf:RDF>
  </metadata>
  <g
     inkscape:label="Layer 1"
     inkscape:groupmode="layer"
     id="layer1"
     transform="translate(-37.505577,-101.66169)">
    <g
       transform="matrix(0.26458333,0,0,0.26458333,29.768709,86.31629)"
       id="g95">
      <path
         style="fill:#409ae1"
         inkscape:connector-curvature="0"
         id="path30"
         d="m 33.886,74.82 a 25.566,25.566 0 0 0 2.758,0.228 0.972,0.972 0 0 0 0.841,-0.516 26.176,26.176 0 0 0 -0.1,-2.813 c -0.067,-0.506 -0.3,-0.742 -0.807,-0.742 -0.639,0 -1.312,0 -1.984,0.034 a 1.15,1.15 0 0 0 -1.245,1.247 c 0,0.641 0.034,1.315 0.068,1.955 a 0.616,0.616 0 0 0 0.469,0.607 z" />
      <path
         style="fill:#409ae1"
         inkscape:connector-curvature="0"
         id="path32"
         d="m 42.631,66.026 a 2.137,2.137 0 0 0 0.908,0.236 c 0.711,0.026 1.4,0.051 2.09,0.062 a 0.822,0.822 0 0 0 0.673,-0.793 18.312,18.312 0 0 0 -0.24,-2.909 0.615,0.615 0 0 0 -0.606,-0.472 c -0.4,0 -0.807,-0.034 -1.21,-0.068 -0.3,0.034 -0.572,0.034 -0.807,0.068 a 1.105,1.105 0 0 0 -1.178,1.15 c -0.033,0.64 -0.067,1.314 -0.067,1.989 a 0.7,0.7 0 0 0 0.437,0.737 z" />
      <path
         style="fill:#409ae1"
         inkscape:connector-curvature="0"
         id="path34"
         d="m 76.1,84.328 a 11.389,11.389 0 0 0 -1.412,-0.135 9.934,9.934 0 0 0 -1.413,0.135 0.336,0.336 0 0 0 -0.2,0.27 c -0.033,0.5 -0.033,2.427 0,2.9 a 0.667,0.667 0 0 0 0.639,0.741 23.773,23.773 0 0 0 2.686,-0.139 0.8,0.8 0 0 0 0.5,-0.438 4.493,4.493 0 0 0 0.135,-2.494 0.925,0.925 0 0 0 -0.935,-0.84 z" />
      <path
         style="fill:#409ae1"
         inkscape:connector-curvature="0"
         id="path36"
         d="m 75.824,75.43 h -0.807 a 7.5,7.5 0 0 0 -0.874,-0.034 c -0.1,0 -0.168,0.034 -0.269,0.034 -0.673,0.1 -0.807,0.236 -0.807,0.944 V 78.6 c 0,0.539 0.1,0.674 0.605,0.775 a 6.468,6.468 0 0 0 2.791,-0.135 c 0.169,-0.033 0.337,-0.269 0.438,-0.438 a 3.775,3.775 0 0 0 0.134,-2.36 C 76.9,75.632 76.632,75.464 75.824,75.43 Z" />
      <path
         style="fill:#409ae1"
         inkscape:connector-curvature="0"
         id="path38"
         d="m 58.539,101.887 c -0.807,-0.033 -1.614,0.034 -2.421,0 a 0.551,0.551 0 0 0 -0.673,0.573 24.818,24.818 0 0 0 0.2,2.731 0.753,0.753 0 0 0 0.673,0.674 c 0.4,0.068 0.773,0.1 1.177,0.135 a 2.687,2.687 0 0 1 0.5,-0.034 c 0.908,0 1.346,-0.371 1.413,-1.281 A 14.172,14.172 0 0 0 59.481,103 c 0.034,-0.776 -0.202,-1.045 -0.942,-1.113 z" />
      <path
         style="fill:#409ae1"
         inkscape:connector-curvature="0"
         id="path40"
         d="m 49.9,101.892 c -0.739,0 -1.479,0 -2.186,0.033 -0.3,0.034 -0.672,0 -0.807,0.371 a 3.937,3.937 0 0 0 -0.235,1.045 c 0,0.472 0.034,0.978 0.067,1.45 a 1.081,1.081 0 0 0 1.177,1.18 11.589,11.589 0 0 0 1.514,0 1.139,1.139 0 0 0 1.143,-1.045 c 0.067,-0.439 0.067,-0.877 0.1,-1.315 0,0 -0.034,0 0,-0.034 a 8.125,8.125 0 0 0 0,-0.91 0.762,0.762 0 0 0 -0.773,-0.775 z" />
      <path
         style="fill:#409ae1"
         inkscape:connector-curvature="0"
         id="path42"
         d="m 71.622,97.645 a 16.462,16.462 0 0 0 -1.816,-0.067 c -0.673,0.033 -0.976,0.2 -1.009,0.876 a 14.636,14.636 0 0 0 0.134,2.427 c 0,0.169 0.3,0.439 0.471,0.472 a 11.019,11.019 0 0 0 2.354,0.135 c 0.706,-0.067 0.942,-0.472 0.975,-1.18 V 99.6 a 6.1,6.1 0 0 0 -0.033,-0.775 1.131,1.131 0 0 0 -1.076,-1.18 z" />
      <path
         style="fill:#409ae1"
         inkscape:connector-curvature="0"
         id="path44"
         d="m 74.383,70.44 h 0.774 a 6.047,6.047 0 0 0 1.109,-0.034 0.79,0.79 0 0 0 0.74,-0.64 5.353,5.353 0 0 0 0,-2.529 0.739,0.739 0 0 0 -0.773,-0.674 C 75.594,66.53 74.921,66.53 74.282,66.53 a 0.846,0.846 0 0 0 -0.874,0.707 10.718,10.718 0 0 0 -0.067,2.326 c 0.033,0.637 0.403,0.843 1.042,0.877 z" />
      <path
         style="fill:#409ae1"
         inkscape:connector-curvature="0"
         id="path46"
         d="m 36.176,97.673 a 13.323,13.323 0 0 0 -1.648,0 1.125,1.125 0 0 0 -1.144,1.18 c 0,0.472 -0.033,0.978 0,1.45 a 1.116,1.116 0 0 0 1.177,1.247 12.263,12.263 0 0 0 1.581,0 c 0.673,-0.034 0.908,-0.236 1.076,-0.91 0.068,-0.371 0.068,-0.708 0.1,-1.079 a 4.588,4.588 0 0 1 0,-0.674 1.133,1.133 0 0 0 -1.142,-1.214 z" />
      <path
         style="fill:#409ae1"
         inkscape:connector-curvature="0"
         id="path48"
         d="m 34.626,66.06 h 1.413 a 1.175,1.175 0 0 0 1.244,-1.214 5.888,5.888 0 0 0 0,-0.775 4,4 0 0 0 0,-0.64 1.167,1.167 0 0 0 -1.21,-1.281 10.747,10.747 0 0 0 -1.48,0 1.15,1.15 0 0 0 -1.177,1.179 11.8,11.8 0 0 0 0,1.551 1.14,1.14 0 0 0 1.21,1.18 z" />
      <path
         style="fill:#409ae1"
         inkscape:connector-curvature="0"
         id="path50"
         d="m 67.151,102.1 a 15.179,15.179 0 0 0 -2.153,0.067 0.59,0.59 0 0 0 -0.437,0.4 13.546,13.546 0 0 0 -0.135,2.326 1.044,1.044 0 0 0 1.144,1.078 h 1.446 a 1.185,1.185 0 0 0 1.278,-1.281 v -1.382 c -0.034,-0.775 -0.37,-1.18 -1.143,-1.208 z" />
      <path
         style="fill:#409ae1"
         inkscape:connector-curvature="0"
         id="path52"
         d="m 31.768,84.4 a 13.1,13.1 0 0 0 -1.985,0.033 c -0.37,0 -0.5,0.27 -0.5,0.641 v 1.18 a 3.444,3.444 0 0 1 -0.034,0.573 V 87.4 c 0,0.64 0.168,0.843 0.807,0.876 0.707,0.034 1.447,0 2.153,-0.033 0.336,-0.034 0.538,-0.169 0.572,-0.506 q 0.1,-1.062 0.1,-2.124 C 32.877,84.566 32.81,84.465 31.768,84.4 Z" />
      <path
         style="fill:#409ae1"
         inkscape:connector-curvature="0"
         id="path54"
         d="m 56.355,61.607 c 0.74,0.034 1.446,0.034 2.152,0 0.505,-0.034 0.807,-0.2 0.841,-0.573 a 16.911,16.911 0 0 0 0.1,-2.259 C 59.414,58.169 59.148,58 58.54,58 h -2.32 c -0.3,0 -0.47,0.1 -0.538,0.371 a 6.581,6.581 0 0 0 -0.067,2.562 0.64,0.64 0 0 0 0.74,0.674 z" />
      <path
         style="fill:#409ae1"
         inkscape:connector-curvature="0"
         id="path56"
         d="m 32.475,75.663 a 4.69,4.69 0 0 0 -2.724,-0.169 c -0.336,0.034 -0.471,0.27 -0.471,0.607 v 1.281 c 0,0.371 0,0.742 0.034,1.112 0,0.641 0.2,0.877 0.841,0.877 0.641,0 1.278,0 1.917,-0.034 0.538,-0.034 0.773,-0.236 0.807,-0.809 0.034,-0.809 -0.034,-1.618 -0.067,-2.427 a 0.633,0.633 0 0 0 -0.337,-0.438 z" />
      <path
         style="fill:#409ae1"
         inkscape:connector-curvature="0"
         id="path58"
         d="m 47.307,61.54 a 19.406,19.406 0 0 0 2.422,0.067 c 0.3,0 0.706,-0.1 0.74,-0.506 0.033,-0.842 0.067,-1.685 0.033,-2.528 C 50.502,58.135 50.267,58 49.83,58 h -2.556 c -0.3,0 -0.505,0.1 -0.538,0.4 a 5.263,5.263 0 0 0 0.134,2.8 0.615,0.615 0 0 0 0.437,0.34 z" />
      <path
         style="fill:#409ae1"
         inkscape:connector-curvature="0"
         id="path60"
         d="m 32.373,93.465 a 4.189,4.189 0 0 0 -2.724,-0.1 c -0.269,0.068 -0.37,0.236 -0.37,0.54 v 1.213 c 0,0.438 0,0.877 -0.034,1.349 a 0.558,0.558 0 0 0 0.437,0.606 4.513,4.513 0 0 0 2.59,-0.1 0.926,0.926 0 0 0 0.471,-0.607 18.916,18.916 0 0 0 0,-2.393 0.65,0.65 0 0 0 -0.37,-0.508 z" />
      <path
         style="fill:#409ae1"
         inkscape:connector-curvature="0"
         id="path62"
         d="m 65.334,61.54 a 14.509,14.509 0 0 0 2.085,0 0.706,0.706 0 0 0 0.74,-0.641 12.736,12.736 0 0 0 0.067,-2.259 C 68.192,58.067 67.991,58 67.419,58 H 66.343 A 10.346,10.346 0 0 0 65.3,58.034 c -0.639,0 -0.841,0.168 -0.874,0.809 0,0.5 -0.034,1.011 0,1.517 0,0.74 0.302,1.146 0.908,1.18 z" />
      <path
         style="fill:#409ae1"
         inkscape:connector-curvature="0"
         id="path64"
         d="M 53.212,74.621 V 91.4 a 33.97,33.97 0 0 0 7.6,-11.966 z" />
      <path
         style="fill:#409ae1"
         inkscape:connector-curvature="0"
         id="path66"
         d="m 69.967,84.538 c 0.751,-0.1 1.537,-0.136 2.288,-0.2 a 0.587,0.587 0 0 0 0.581,-0.513 c 0.034,-0.411 0.068,-0.856 0.068,-1.267 0,-0.719 -0.034,-1.4 -0.068,-2.122 a 0.476,0.476 0 0 0 -0.478,-0.514 c -0.342,-0.034 -0.649,-0.034 -0.957,-0.068 -0.683,-0.069 -1.331,-0.137 -1.98,-0.24 a 0.714,0.714 0 0 1 -0.683,-0.719 c -0.034,-0.924 -0.069,-1.814 -0.034,-2.738 a 0.589,0.589 0 0 1 0.429,-0.649 c 0.04,0.007 0.068,0.027 0.111,0.031 a 20.9,20.9 0 0 0 2.528,0 0.876,0.876 0 0 0 0.922,-0.822 c 0,-0.035 0,-0.071 0.008,-0.107 a 0.611,0.611 0 0 0 0.031,-0.131 l -0.019,-0.011 a 15.378,15.378 0 0 0 0.082,-2.626 C 72.762,71.123 72.489,71.02 71.806,71.02 h -1.332 c -0.444,0 -0.854,0 -1.264,0.034 -0.785,0 -1.024,0.206 -1.058,1.027 a 18.415,18.415 0 0 0 -0.035,1.951 2.575,2.575 0 0 0 0.107,0.663 0.706,0.706 0 0 1 -0.784,0.366 2.576,2.576 0 0 1 -0.512,0 A 9.179,9.179 0 0 1 65.254,74.65 1.53,1.53 0 0 1 64.674,74 4.248,4.248 0 0 1 64.4,71.843 0.844,0.844 0 0 1 65.152,71.022 c 0.375,-0.034 0.717,-0.069 1.093,-0.1 0.478,-0.034 0.99,-0.034 1.468,-0.068 0.308,-0.035 0.615,-0.206 0.615,-0.548 q 0,-1.335 -0.1,-2.67 c -0.068,-0.753 -0.409,-1.027 -1.161,-1.027 -0.171,0 -0.375,-0.034 -0.546,-0.034 -0.717,0 -1.435,0.034 -2.152,0.068 -0.1,0 -0.273,0.1 -0.273,0.2 -0.068,0.377 -0.1,0.719 -0.137,1.1 -0.068,0.65 -0.1,1.3 -0.205,1.917 -0.034,0.308 -0.136,0.65 -0.546,0.684 a 9.148,9.148 0 0 1 -1.366,0.035 3.94,3.94 0 0 1 -1.23,-0.377 1.812,1.812 0 0 1 -0.887,-1.575 c -0.035,-0.718 -0.1,-1.4 -0.171,-2.088 0.115,-0.009 0.215,-0.019 0.321,-0.029 0.155,0.1 3.976,-0.11 4.01,-0.624 a 16.175,16.175 0 0 0 0.1,-2.875 c -0.034,-0.719 -0.308,-0.822 -0.991,-0.822 h -1.332 c -0.409,0 -0.853,0 -1.263,0.034 -0.786,0 -1.025,0.206 -1.059,1.027 a 18.685,18.685 0 0 0 -0.034,1.951 2.711,2.711 0 0 0 0.093,0.635 c -0.006,0.04 -0.014,0.082 -0.019,0.121 A 0.361,0.361 0 0 1 58.97,66.3 c -0.99,0 -2.015,0.034 -3,-0.035 -0.717,-0.034 -0.854,-0.239 -0.922,-0.958 -0.069,-0.787 -0.137,-1.54 -0.2,-2.328 -0.069,-0.616 -0.342,-0.89 -0.957,-0.89 h -2.366 c -0.546,0.034 -0.82,0.24 -0.888,0.788 -0.1,0.958 -0.2,1.916 -0.273,2.909 -0.034,0.343 -0.2,0.479 -0.478,0.479 -0.957,0.035 -1.947,0.069 -2.9,0.1 -0.922,0.069 -1.059,-0.1 -1.093,1.027 a 10.975,10.975 0 0 1 -0.239,2.123 1.167,1.167 0 0 1 -1.025,1.061 c -0.444,0.034 -0.853,0.171 -1.3,0.171 a 10.72,10.72 0 0 1 -1.5,-0.137 0.468,0.468 0 0 1 -0.273,-0.342 V 70.23 a 0.862,0.862 0 0 0 0.037,-0.137 16.186,16.186 0 0 0 0.1,-2.876 c -0.034,-0.719 -0.307,-0.821 -0.99,-0.821 h -1.337 c -0.444,0 -0.854,0 -1.264,0.034 -0.785,0 -1.024,0.2 -1.058,1.027 a 18.41,18.41 0 0 0 -0.035,1.951 c 0.035,0.924 0.376,1.438 1.127,1.506 a 17.758,17.758 0 0 0 2.1,0.013 c 0.119,0.007 0.237,0.007 0.356,0.025 0.615,0.069 0.752,0.274 0.752,0.89 -0.034,0.651 -0.069,1.335 -0.137,1.986 a 1.458,1.458 0 0 1 -1.263,1.335 c -0.82,0.1 -1.64,0.2 -2.459,0.239 -0.41,0 -0.479,0.172 -0.479,0.514 -0.034,1.061 -0.034,2.157 -0.1,3.218 -0.007,0.119 -0.014,0.433 -0.021,0.851 a 1.831,1.831 0 0 0 -0.6,-0.069 h -1.329 c -0.409,0 -0.853,0 -1.263,0.034 -0.786,0 -1.025,0.206 -1.059,1.027 A 18.7,18.7 0 0 0 32.6,82.929 c 0.034,0.924 0.376,1.437 1.127,1.506 a 20.885,20.885 0 0 0 2.527,0 0.962,0.962 0 0 0 0.591,-0.2 c 0,0.516 0,0.891 0,0.99 0.034,1.027 0.068,2.054 0.068,3.081 0,0.548 -0.034,0.548 -0.546,0.582 -0.376,0.034 -0.786,0 -1.2,0.034 a 10.71,10.71 0 0 0 -1.5,0.171 c -0.614,0.1 -0.853,0.411 -0.887,1.062 v 1.675 c 0,0.822 0.307,1.164 1.127,1.267 a 7.359,7.359 0 0 0 2.732,0 0.439,0.439 0 0 0 0.239,-0.309 c 0.068,-0.616 0.1,-1.2 0.136,-1.814 0.034,-0.65 0.069,-1.3 0.1,-1.985 0.546,0 2.151,0.068 2.561,0.137 a 1.563,1.563 0 0 1 1.3,1.266 10.191,10.191 0 0 1 0.137,2.054 0.693,0.693 0 0 1 -0.547,0.685 7.094,7.094 0 0 1 -0.888,0.137 c -0.614,0.034 -1.263,0.068 -1.878,0.137 -0.581,0.034 -0.683,0.239 -0.683,0.821 0.034,0.719 0.068,1.438 0.068,2.157 0,0.821 0.273,1.164 1.093,1.232 0.82,0.068 1.639,0.069 2.459,0.1 a 0.629,0.629 0 0 0 0.717,-0.65 v -0.719 c 0.068,-0.651 0.1,-1.267 0.171,-1.883 a 0.777,0.777 0 0 1 0.717,-0.753 4.159,4.159 0 0 1 1.947,0.137 1.357,1.357 0 0 1 1.093,0.821 5.211,5.211 0 0 1 0.273,2.5 2.381,2.381 0 0 1 -0.282,0.619 c -0.053,0 -0.1,0 -0.162,0 h -1.335 c -0.444,0 -0.854,0 -1.264,0.034 -0.785,0 -1.024,0.206 -1.058,1.027 a 18.429,18.429 0 0 0 -0.034,1.952 c 0.034,0.924 0.375,1.437 1.127,1.506 a 20.885,20.885 0 0 0 2.527,0 0.876,0.876 0 0 0 0.922,-0.822 16.175,16.175 0 0 0 0.1,-2.875 2.039,2.039 0 0 0 -0.023,-0.228 c 0.125,-0.293 0.354,-0.421 0.809,-0.421 0.785,0 1.605,0.068 2.39,0.136 a 1.135,1.135 0 0 1 0.991,1.062 c 0.068,0.855 0.136,1.745 0.205,2.6 a 0.41,0.41 0 0 0 0.375,0.411 c 0.41,0.034 0.786,0.1 1.2,0.1 0.717,0 1.434,-0.034 2.151,-0.069 0.41,0 0.581,-0.171 0.615,-0.582 0.068,-0.753 0.137,-1.54 0.239,-2.293 a 1.186,1.186 0 0 1 0.922,-1.13 20.713,20.713 0 0 1 2.527,-0.068 0.712,0.712 0 0 1 0.684,0.442 c 0,0.053 -0.011,0.1 -0.014,0.162 a 18.68,18.68 0 0 0 -0.034,1.951 c 0.034,0.924 0.376,1.438 1.127,1.506 a 20.683,20.683 0 0 0 2.527,0 0.877,0.877 0 0 0 0.923,-0.821 16.281,16.281 0 0 0 0.1,-2.876 c -0.034,-0.719 -0.307,-0.822 -0.99,-0.822 h -1.332 c -0.326,0 -0.67,0.011 -1,0.028 A 0.656,0.656 0 0 1 60,97.17 c -0.239,-1.232 0.068,-2.807 1.878,-3.115 0.786,-0.137 1.742,0.034 1.844,1.2 q 0.051,0.977 0.1,1.951 c 0.034,0.514 0.239,0.754 0.751,0.719 0.888,-0.034 1.81,-0.1 2.732,-0.1 a 1.209,1.209 0 0 0 1.025,-0.89 c 0.068,-0.48 0.068,-0.925 0.1,-1.4 0,-0.513 0,-1.061 0.034,-1.575 a 0.588,0.588 0 0 0 -0.648,-0.684 h -0.854 a 4.8,4.8 0 0 1 -1.845,-0.377 c -0.273,-0.137 -0.409,-0.274 -0.409,-0.548 a 4.144,4.144 0 0 1 0,-1.129 2.4,2.4 0 0 1 0.478,-1.164 3,3 0 0 1 2.459,-0.651 0.689,0.689 0 0 1 0.58,0.582 6.258,6.258 0 0 1 0.1,1.13 v 1.601 c 0,0.308 0.273,0.685 0.512,0.685 0.854,-0.035 1.708,-0.069 2.561,-0.137 0.853,-0.068 1.264,-0.308 1.3,-0.925 a 23.09,23.09 0 0 0 0,-2.67 c -0.034,-0.513 -0.273,-0.684 -0.785,-0.719 -0.649,-0.068 -1.3,-0.068 -1.947,-0.1 -0.922,-0.069 -1.161,-0.308 -1.229,-1.233 a 11.6,11.6 0 0 1 0.034,-1.882 1.189,1.189 0 0 1 1.196,-1.201 z M 53.2,93.931 A 26.542,26.542 0 0 1 42.765,78.408 L 53.1,71.431 63.645,78.515 A 27.751,27.751 0 0 1 53.2,93.931 Z" />
    </g>
  </g>
</svg>
