<?xml version="1.0" encoding="utf-8"?>
<!-- Generator: Adobe Illustrator 24.2.0, SVG Export Plug-In . SVG Version: 6.00 Build 0)  -->
<svg version="1.1" id="Layer_1" xmlns="http://www.w3.org/2000/svg" xmlns:xlink="http://www.w3.org/1999/xlink" x="0px" y="0px"
	 viewBox="0 0 18 20" enable-background="new 0 0 18 20" xml:space="preserve">
<path fill="#121212" d="M16.5,2h-3V0.5H12V2H6V0.5H4.5V2h-3C0.7,2,0,2.7,0,3.5v15C0,19.3,0.7,20,1.5,20h15c0.8,0,1.5-0.7,1.5-1.5
	v-15C18,2.7,17.3,2,16.5,2z M16.5,18.5h-15V8h15V18.5z M16.5,6.5h-15v-3h3V5H6V3.5h6V5h1.5V3.5h3V6.5z"/>
</svg>
