<svg width="16" height="14" viewBox="0 0 16 14" fill="none" xmlns="http://www.w3.org/2000/svg">
<path d="M9.85 3.64993L6.35 0.149933C6.30601 0.101074 6.25192 0.0623552 6.19149 0.0364559C6.13106 0.0105567 6.06572 -0.00190489 6 -6.66889e-05H1C0.735023 0.000711555 0.481121 0.106318 0.293753 0.293686C0.106385 0.481054 0.000778244 0.734956 0 0.999933V12.9999C0.000778244 13.2649 0.106385 13.5188 0.293753 13.7062C0.481121 13.8935 0.735023 13.9992 1 13.9999H9C9.26498 13.9992 9.51888 13.8935 9.70625 13.7062C9.89362 13.5188 9.99922 13.2649 10 12.9999V3.99993C10.0018 3.93421 9.98938 3.86888 9.96348 3.80844C9.93758 3.74801 9.89886 3.69393 9.85 3.64993ZM6 1.19993L8.8 3.99993H6V1.19993ZM9 12.9999H1V0.999933H5V3.99993C5.00078 4.26491 5.10638 4.51881 5.29375 4.70618C5.48112 4.89355 5.73502 4.99916 6 4.99993H9V12.9999Z" fill="#4A4A4A"/>
</svg>
