<svg width="16" height="14" viewBox="0 0 16 14" fill="none" xmlns="http://www.w3.org/2000/svg">
<path d="M4.585 1L6.295 2.705L6.585 3H13V11H1V1H4.585ZM4.585 3.13967e-07H1C0.734784 3.13967e-07 0.48043 0.105357 0.292893 0.292894C0.105357 0.48043 0 0.734784 0 1V11C0 11.2652 0.105357 11.5196 0.292893 11.7071C0.48043 11.8946 0.734784 12 1 12H13C13.2652 12 13.5196 11.8946 13.7071 11.7071C13.8946 11.5196 14 11.2652 14 11V3C14 2.73478 13.8946 2.48043 13.7071 2.29289C13.5196 2.10536 13.2652 2 13 2H7L5.295 0.295C5.20197 0.201416 5.09134 0.127169 4.96948 0.0765386C4.84763 0.0259082 4.71696 -0.000104246 4.585 3.13967e-07Z" fill="#1D52D4"/>
</svg>