<svg width="20" height="20" viewBox="0 0 20 20" fill="none" xmlns="http://www.w3.org/2000/svg">
<path d="M12.4999 4.16687H14.1665C14.6086 4.16687 15.0325 4.34246 15.345 4.65503C15.6576 4.96759 15.8332 5.39151 15.8332 5.83354V12.6419C16.3894 12.8385 16.8583 13.2254 17.1568 13.7342C17.4554 14.243 17.5644 14.8411 17.4647 15.4225C17.365 16.004 17.0629 16.5315 16.6118 16.9118C16.1608 17.292 15.5898 17.5006 14.9999 17.5006C14.4099 17.5006 13.8389 17.292 13.3879 16.9118C12.9368 16.5315 12.6347 16.004 12.535 15.4225C12.4353 14.8411 12.5443 14.243 12.8429 13.7342C13.1414 13.2254 13.6103 12.8385 14.1665 12.6419V5.83354H12.4999V8.33354L8.74986 5.0002L12.4999 1.66687V4.16687ZM4.16653 7.35854C3.61028 7.16195 3.14145 6.77504 2.8429 6.2662C2.54434 5.75736 2.43529 5.15935 2.53502 4.57788C2.63475 3.99641 2.93684 3.46892 3.38789 3.08864C3.83893 2.70837 4.4099 2.4998 4.99986 2.4998C5.58982 2.4998 6.16079 2.70837 6.61184 3.08864C7.06289 3.46892 7.36497 3.99641 7.4647 4.57788C7.56443 5.15935 7.45538 5.75736 7.15683 6.2662C6.85827 6.77504 6.38944 7.16195 5.8332 7.35854V12.6419C6.38944 12.8385 6.85827 13.2254 7.15683 13.7342C7.45538 14.243 7.56443 14.8411 7.4647 15.4225C7.36497 16.004 7.06289 16.5315 6.61184 16.9118C6.16079 17.292 5.58982 17.5006 4.99986 17.5006C4.4099 17.5006 3.83893 17.292 3.38789 16.9118C2.93684 16.5315 2.63475 16.004 2.53502 15.4225C2.43529 14.8411 2.54434 14.243 2.8429 13.7342C3.14145 13.2254 3.61028 12.8385 4.16653 12.6419V7.35854ZM4.99986 5.83354C5.22088 5.83354 5.43284 5.74574 5.58912 5.58946C5.7454 5.43318 5.8332 5.22122 5.8332 5.0002C5.8332 4.77919 5.7454 4.56723 5.58912 4.41095C5.43284 4.25467 5.22088 4.16687 4.99986 4.16687C4.77885 4.16687 4.56689 4.25467 4.41061 4.41095C4.25433 4.56723 4.16653 4.77919 4.16653 5.0002C4.16653 5.22122 4.25433 5.43318 4.41061 5.58946C4.56689 5.74574 4.77885 5.83354 4.99986 5.83354ZM4.99986 15.8335C5.22088 15.8335 5.43284 15.7457 5.58912 15.5895C5.7454 15.4332 5.8332 15.2212 5.8332 15.0002C5.8332 14.7792 5.7454 14.5672 5.58912 14.4109C5.43284 14.2547 5.22088 14.1669 4.99986 14.1669C4.77885 14.1669 4.56689 14.2547 4.41061 14.4109C4.25433 14.5672 4.16653 14.7792 4.16653 15.0002C4.16653 15.2212 4.25433 15.4332 4.41061 15.5895C4.56689 15.7457 4.77885 15.8335 4.99986 15.8335ZM14.9999 15.8335C15.2209 15.8335 15.4328 15.7457 15.5891 15.5895C15.7454 15.4332 15.8332 15.2212 15.8332 15.0002C15.8332 14.7792 15.7454 14.5672 15.5891 14.4109C15.4328 14.2547 15.2209 14.1669 14.9999 14.1669C14.7788 14.1669 14.5669 14.2547 14.4106 14.4109C14.2543 14.5672 14.1665 14.7792 14.1665 15.0002C14.1665 15.2212 14.2543 15.4332 14.4106 15.5895C14.5669 15.7457 14.7788 15.8335 14.9999 15.8335Z" fill="#383A43"/>
</svg>
