<svg width="24" height="24" viewBox="0 0 24 24" fill="none" xmlns="http://www.w3.org/2000/svg">
<path d="M8.96148 14.2499C8.22747 14.2501 7.5099 14.0325 6.89954 13.6248C6.28918 13.2171 5.81345 12.6375 5.53253 11.9594C5.2516 11.2813 5.1781 10.5351 5.32133 9.81517C5.46455 9.09527 5.81807 8.43401 6.33715 7.91505L10.1661 4.08683C10.8621 3.39082 11.806 2.99979 12.7903 2.99976C13.7745 2.99972 14.7185 3.39068 15.4145 4.08664C16.1105 4.78259 16.5016 5.72653 16.5016 6.71079C16.5016 7.69506 16.1107 8.63902 15.4147 9.33503L15.0005 9.74948L13.9386 8.6898L14.3569 8.27138C14.7699 7.85627 15.0015 7.29436 15.001 6.70878C15.0004 6.12321 14.7678 5.56173 14.354 5.1474C13.9327 4.74531 13.3726 4.52097 12.7902 4.52097C12.2078 4.52097 11.6478 4.74531 11.2265 5.1474L7.39795 8.9754C7.19258 9.18068 7.02966 9.42442 6.91851 9.69268C6.80735 9.96094 6.75014 10.2485 6.75014 10.5389C6.75014 10.8292 6.80735 11.1168 6.91851 11.385C7.02966 11.6533 7.19258 11.897 7.39795 12.1023C7.81928 12.5044 8.3793 12.7287 8.9617 12.7287C9.54411 12.7287 10.1041 12.5044 10.5255 12.1023L11.5862 13.1632C11.2422 13.5088 10.8332 13.7829 10.3827 13.9694C9.93213 14.1559 9.44909 14.2513 8.96148 14.2499Z" fill="#383A43"/>
<path d="M14.9615 12.7501C14.2275 12.7502 13.5099 12.5327 12.8995 12.125C12.2892 11.7173 11.8135 11.1377 11.5325 10.4596C11.2516 9.78143 11.1781 9.03523 11.3213 8.31532C11.4646 7.59542 11.8181 6.93417 12.3372 6.41521L12.7516 6.00076L13.8123 7.06171L13.3979 7.47593C13.1926 7.68122 13.0297 7.92494 12.9186 8.19318C12.8074 8.46142 12.7502 8.74892 12.7502 9.03927C12.7502 9.32961 12.8074 9.61712 12.9186 9.88536C13.0297 10.1536 13.1926 10.3973 13.3979 10.6026C13.8192 11.0047 14.3792 11.229 14.9616 11.229C15.544 11.229 16.1041 11.0047 16.5254 10.6026C16.7204 10.4076 20.0724 7.05563 20.3544 6.77423C20.7684 6.35931 21.0009 5.79711 21.0009 5.21097C21.0009 4.62483 20.7684 4.06263 20.3544 3.64771C19.933 3.24562 19.373 3.02127 18.7906 3.02127C18.2082 3.02127 17.6482 3.24562 17.2269 3.64771L16.1661 2.58683C16.8623 1.89189 17.8059 1.50177 18.7896 1.5022C19.7733 1.50263 20.7166 1.89358 21.4122 2.58913C22.1078 3.28469 22.4988 4.22795 22.4992 5.21163C22.4997 6.19532 22.1096 7.13895 21.4147 7.83518C21.1323 8.11718 17.7817 11.4673 17.5869 11.6628C17.2428 12.0086 16.8337 12.2827 16.383 12.4693C15.9324 12.656 15.4492 12.7514 14.9615 12.7501Z" fill="#383A43"/>
<path d="M18 22.5H3C2.6023 22.4996 2.22101 22.3414 1.9398 22.0602C1.65859 21.779 1.50042 21.3977 1.5 21V6C1.50042 5.6023 1.65859 5.22101 1.9398 4.9398C2.22101 4.65859 2.6023 4.50042 3 4.5H6V6H3V21H18V13.5H19.5V21C19.4996 21.3977 19.3414 21.779 19.0602 22.0602C18.779 22.3414 18.3977 22.4996 18 22.5Z" fill="#383A43"/>
</svg>
