<svg width="20" height="20" viewBox="0 0 20 20" fill="none" xmlns="http://www.w3.org/2000/svg">
<path d="M13.75 3.75H6.25V5H13.75V3.75Z" fill="#121212"/>
<path d="M13.75 6.25H6.25V7.5H13.75V6.25Z" fill="#121212"/>
<path d="M10 15H6.25V16.25H10V15Z" fill="#121212"/>
<path d="M10 8.75H6.25V10H10V8.75Z" fill="#121212"/>
<path d="M15 18.75H5C4.6686 18.7496 4.35087 18.6178 4.11654 18.3835C3.8822 18.1491 3.75038 17.8314 3.75 17.5V2.5C3.75038 2.1686 3.8822 1.85087 4.11654 1.61654C4.35087 1.3822 4.6686 1.25038 5 1.25H15C15.3314 1.25038 15.6491 1.3822 15.8835 1.61654C16.1178 1.85087 16.2496 2.1686 16.25 2.5V17.5C16.2496 17.8314 16.1178 18.1491 15.8835 18.3835C15.6491 18.6178 15.3314 18.7496 15 18.75ZM5 2.5V17.5H15V2.5H5Z" fill="#121212"/>
</svg>
