<svg width="21" height="21" viewBox="0 0 21 21" fill="none" xmlns="http://www.w3.org/2000/svg">
<path d="M20.7502 19.6894L15.0861 14.0253C16.4471 12.3913 17.1258 10.2955 16.981 8.17387C16.8362 6.05224 15.8789 4.06812 14.3085 2.63426C12.738 1.20041 10.6752 0.427212 8.54918 0.475524C6.42316 0.523836 4.39761 1.38993 2.89389 2.89365C1.39018 4.39736 0.52408 6.42292 0.475768 8.54894C0.427456 10.675 1.20065 12.7378 2.63451 14.3082C4.06836 15.8787 6.05248 16.8359 8.17412 16.9808C10.2958 17.1256 12.3915 16.4469 14.0255 15.0859L19.6896 20.7499L20.7502 19.6894ZM2.00018 8.74993C2.00018 7.41491 2.39606 6.10987 3.13776 4.99983C3.87946 3.8898 4.93366 3.02464 6.16706 2.51375C7.40047 2.00285 8.75766 1.86918 10.067 2.12963C11.3764 2.39008 12.5791 3.03296 13.5231 3.97696C14.4672 4.92097 15.11 6.1237 15.3705 7.43307C15.6309 8.74245 15.4973 10.0996 14.9864 11.333C14.4755 12.5664 13.6103 13.6207 12.5003 14.3624C11.3902 15.1041 10.0852 15.4999 8.75018 15.4999C6.96058 15.4979 5.24484 14.7862 3.9794 13.5207C2.71396 12.2553 2.00216 10.5395 2.00018 8.74993Z" fill="#383A43"/>
</svg>
