<svg width="24" height="24" viewBox="0 0 24 24" fill="none" xmlns="http://www.w3.org/2000/svg">
<path d="M21.75 7.5H18V9H21.75V13.5H16.5V15H18.75V16.6065C18.043 16.789 17.4269 17.2232 17.0171 17.8275C16.6072 18.4318 16.4319 19.1649 16.5239 19.8893C16.6159 20.6136 16.969 21.2795 17.5168 21.7622C18.0647 22.2449 18.7698 22.5112 19.5 22.5112C20.2302 22.5112 20.9353 22.2449 21.4832 21.7622C22.0311 21.2795 22.3841 20.6136 22.4761 19.8893C22.5681 19.1649 22.3928 18.4318 21.983 17.8275C21.5731 17.2232 20.957 16.789 20.25 16.6065V15H21.75C22.1477 14.9995 22.5289 14.8413 22.8101 14.5601C23.0913 14.2789 23.2495 13.8977 23.25 13.5V9C23.2496 8.60232 23.0914 8.22105 22.8102 7.93984C22.529 7.65864 22.1477 7.50046 21.75 7.5ZM21 19.5C21 19.7967 20.912 20.0867 20.7472 20.3334C20.5824 20.58 20.3481 20.7723 20.074 20.8858C19.7999 20.9994 19.4983 21.0291 19.2074 20.9712C18.9164 20.9133 18.6491 20.7704 18.4393 20.5607C18.2296 20.3509 18.0867 20.0836 18.0288 19.7926C17.971 19.5017 18.0007 19.2001 18.1142 18.926C18.2277 18.6519 18.42 18.4176 18.6667 18.2528C18.9133 18.088 19.2033 18 19.5 18C19.8977 18.0005 20.2789 18.1587 20.5601 18.4399C20.8413 18.7211 20.9995 19.1023 21 19.5Z" fill="#383A43"/>
<path d="M14.25 4.5H10.5V6H14.25V10.5H9.00001V12H11.25V16.6065C10.543 16.789 9.92686 17.2232 9.51706 17.8275C9.10725 18.4318 8.93191 19.1649 9.02392 19.8893C9.11592 20.6136 9.46895 21.2795 10.0168 21.7622C10.5647 22.2449 11.2698 22.5112 12 22.5112C12.7302 22.5112 13.4353 22.2449 13.9832 21.7622C14.5311 21.2795 14.8841 20.6136 14.9761 19.8893C15.0681 19.1649 14.8928 18.4318 14.483 17.8275C14.0731 17.2232 13.457 16.789 12.75 16.6065V12H14.25C14.6477 11.9995 15.029 11.8414 15.3102 11.5602C15.5914 11.2789 15.7496 10.8977 15.75 10.5V6C15.7496 5.60232 15.5914 5.22105 15.3102 4.93984C15.029 4.65864 14.6477 4.50046 14.25 4.5ZM13.5 19.5C13.5 19.7967 13.412 20.0867 13.2472 20.3334C13.0824 20.58 12.8481 20.7723 12.574 20.8858C12.2999 20.9994 11.9983 21.0291 11.7074 20.9712C11.4164 20.9133 11.1491 20.7704 10.9393 20.5607C10.7296 20.3509 10.5867 20.0836 10.5288 19.7926C10.471 19.5017 10.5007 19.2001 10.6142 18.926C10.7277 18.6519 10.92 18.4176 11.1667 18.2528C11.4133 18.088 11.7033 18 12 18C12.3977 18.0005 12.7789 18.1587 13.0601 18.4399C13.3413 18.7211 13.4995 19.1023 13.5 19.5Z" fill="#383A43"/>
<path d="M6.75 1.5H2.25C1.8523 1.5004 1.471 1.65856 1.18978 1.93978C0.90856 2.221 0.750397 2.6023 0.75 3V7.5C0.750397 7.8977 0.90856 8.279 1.18978 8.56022C1.471 8.84144 1.8523 8.9996 2.25 9H3.75V16.6065C3.04301 16.789 2.42686 17.2232 2.01705 17.8275C1.60724 18.4318 1.43191 19.1649 1.52391 19.8893C1.61592 20.6136 1.96895 21.2795 2.51683 21.7622C3.06471 22.2449 3.76982 22.5112 4.5 22.5112C5.23018 22.5112 5.9353 22.2449 6.48317 21.7622C7.03105 21.2795 7.38408 20.6136 7.47609 19.8893C7.56809 19.1649 7.39276 18.4318 6.98295 17.8275C6.57314 17.2232 5.95699 16.789 5.25 16.6065V9H6.75C7.1477 8.9996 7.529 8.84144 7.81022 8.56022C8.09144 8.279 8.2496 7.8977 8.25 7.5V3C8.2496 2.6023 8.09144 2.221 7.81022 1.93978C7.529 1.65856 7.1477 1.5004 6.75 1.5ZM6 19.5C6 19.7967 5.91203 20.0867 5.7472 20.3334C5.58238 20.58 5.34811 20.7723 5.07403 20.8858C4.79994 20.9994 4.49834 21.0291 4.20736 20.9712C3.91639 20.9133 3.64912 20.7704 3.43934 20.5607C3.22956 20.3509 3.0867 20.0836 3.02882 19.7926C2.97094 19.5017 3.00065 19.2001 3.11418 18.926C3.22771 18.6519 3.41997 18.4176 3.66664 18.2528C3.91332 18.088 4.20333 18 4.5 18C4.89768 18.0005 5.27895 18.1586 5.56016 18.4398C5.84136 18.7211 5.99954 19.1023 6 19.5ZM2.25 7.5V3H6.75L6.75113 7.5H2.25Z" fill="#383A43"/>
</svg>
