<svg width="20" height="20" viewBox="0 0 20 20" fill="none" xmlns="http://www.w3.org/2000/svg">
<path d="M16.875 5.625H15V3.75C15 3.41848 14.8683 3.10054 14.6339 2.86612C14.3995 2.6317 14.0815 2.5 13.75 2.5H6.25C5.91848 2.5 5.60054 2.6317 5.36612 2.86612C5.1317 3.10054 5 3.41848 5 3.75V5.625H3.125C2.62772 5.625 2.15081 5.82254 1.79917 6.17417C1.44754 6.52581 1.25 7.00272 1.25 7.5V16.25C1.25 16.5815 1.3817 16.8995 1.61612 17.1339C1.85054 17.3683 2.16848 17.5 2.5 17.5H17.5C17.8315 17.5 18.1495 17.3683 18.3839 17.1339C18.6183 16.8995 18.75 16.5815 18.75 16.25V7.5C18.75 7.00272 18.5525 6.52581 18.2008 6.17417C17.8492 5.82254 17.3723 5.625 16.875 5.625ZM6.25 3.75H13.75V5.625H6.25V3.75ZM17.5 16.25H2.5V10.625H7.5V13.75H12.5V10.625H17.5V16.25ZM8.75 10.625H11.25V12.5H8.75V10.625ZM2.5 9.375V7.5C2.5 7.33424 2.56585 7.17527 2.68306 7.05806C2.80027 6.94085 2.95924 6.875 3.125 6.875H16.875C17.0408 6.875 17.1997 6.94085 17.3169 7.05806C17.4342 7.17527 17.5 7.33424 17.5 7.5V9.375H2.5Z" fill="#383A43"/>
</svg>
