<svg width="175" height="24" viewBox="0 0 175 24" fill="none" xmlns="http://www.w3.org/2000/svg">
<path d="M38 18.16C40.768 18.16 42.672 16.608 43.104 14.192H42.032C41.6 16 40.112 17.184 38.048 17.184C35.568 17.184 33.888 15.488 33.888 13.168V11.296C33.888 8.752 35.552 7.168 38.112 7.168C40.368 7.168 41.696 8.4 42.032 10.16H43.104C42.768 7.776 40.96 6.176 38.128 6.176C34.672 6.176 32.784 8.4 32.784 12.176C32.784 16.016 34.752 18.16 38 18.16Z" fill="white"/>
<path d="M45.76 18H52.576V17.024H46.8V6.336H45.76V18Z" fill="white"/>
<path d="M54.9006 18H62.4686V16.992H55.9406V12.48H61.7166V11.52H55.9406V7.344H62.4686V6.336H54.9006V18Z" fill="white"/>
<path d="M72.6364 18H73.7564L69.2604 6.336H68.0764L63.5804 18H64.6844L65.8364 14.992H71.4844L72.6364 18ZM66.1884 14.08L67.0364 11.84L68.6364 7.36H68.7004L70.2844 11.84L71.1324 14.08H66.1884Z" fill="white"/>
<path d="M75.3225 18H76.3625V13.36H83.0825V18H84.1225V13.728C84.1225 13.104 83.9305 12.688 83.1465 12.688H82.4425V12.592C83.4185 12.24 84.0745 11.216 84.0745 9.824C84.0745 7.664 83.0345 6.336 80.7465 6.336H75.3225V18ZM76.3625 12.4V7.296H80.6345C82.0425 7.296 82.9705 7.92 82.9705 9.264V10.416C82.9705 11.6 82.1225 12.4 80.6345 12.4H76.3625Z" fill="white"/>
<path d="M87.26 18H94.076V17.024H88.3V6.336H87.26V18Z" fill="white"/>
<path d="M92.3464 6.336L96.7304 13.184V18H97.7704V13.184L102.138 6.336H100.842L98.8744 9.536L97.3064 12.144H97.1944L95.6424 9.568L93.6264 6.336H92.3464Z" fill="white"/>
<path d="M103.354 18H108.442C111.946 18 113.818 16.112 113.818 12.176C113.818 8.448 112.138 6.336 108.442 6.336H103.354V18ZM106.33 15.456V8.88H108.346C109.866 8.88 110.698 9.328 110.698 11.152V13.184C110.698 14.64 110.266 15.456 108.346 15.456H106.33Z" fill="white"/>
<path d="M115.417 18H123.833V15.456H118.393V13.136H123.001V10.752H118.393V8.88H123.833V6.336H115.417V18Z" fill="white"/>
<path d="M125.651 18H128.627V14.032H133.475V11.616H128.627V8.88H134.115V6.336H125.651V18Z" fill="white"/>
<path d="M138.549 18V6.336H135.573V18H138.549Z" fill="white"/>
<path d="M140.76 18H143.736V13.84L143.576 10.672H143.704L147.832 18H151.24V6.336H148.28V10.464L148.456 13.744H148.328L144.168 6.336H140.76V18Z" fill="white"/>
<path d="M153.448 18H161.864V15.456H156.424V13.136H161.032V10.752H156.424V8.88H161.864V6.336H153.448V18Z" fill="white"/>
<path d="M163.682 18H168.77C172.274 18 174.146 16.112 174.146 12.176C174.146 8.448 172.466 6.336 168.77 6.336H163.682V18ZM166.658 15.456V8.88H168.674C170.194 8.88 171.026 9.328 171.026 11.152V13.184C171.026 14.64 170.594 15.456 168.674 15.456H166.658Z" fill="white"/>
<path d="M8 8H16V16H8V8Z" fill="white"/>
<path d="M16 0H23C23.5523 0 24 0.447715 24 1V8H16V0Z" fill="white"/>
<path d="M16 16H24V23C24 23.5523 23.5523 24 23 24H16V16Z" fill="white"/>
<path d="M0 1C0 0.447715 0.447715 0 1 0H8V8H0V1Z" fill="white"/>
<path d="M0 16H8V24H1C0.447715 24 0 23.5523 0 23V16Z" fill="white"/>
</svg>
